<?xml version="1.0" encoding="utf-8"?>
<!-- Generator: Adobe Illustrator 22.0.1, SVG Export Plug-In . SVG Version: 6.00 Build 0)  -->
<svg version="1.1" id="Layer_1" xmlns="http://www.w3.org/2000/svg" xmlns:xlink="http://www.w3.org/1999/xlink" x="0px" y="0px"
	 viewBox="0 0 16 16" style="enable-background:new 0 0 16 16;" xml:space="preserve">
<style type="text/css">
	.st0{display:none;fill:none;stroke:#232323;stroke-width:0.5;stroke-linecap:round;stroke-miterlimit:10;}
	.st1{fill:#FFFFFF;stroke:#FFFFFF;stroke-width:0.5;stroke-linecap:round;stroke-miterlimit:10;}
	.st2{display:none;}
	.st3{display:inline;fill:#FF4B55;}
	.st4{display:inline;fill:#73AF00;}
	.st5{display:inline;fill:#FFE15A;}
	.st6{display:inline;fill:#F5F5F5;}
	.st7{display:inline;}
	.st8{fill:#FFE15A;}
	.st9{fill:#41479B;}
	.st10{display:inline;fill:#41479B;}
	.st11{fill:#FF4B55;}
	.st12{display:none;fill:#FFFFFF;stroke:#000000;stroke-width:0.5;stroke-linecap:round;stroke-miterlimit:10;}
</style>
<line class="st0" x1="-9.3" y1="0.5" x2="-3.2" y2="6.5"/>
<line class="st0" x1="-3.3" y1="0.5" x2="-9.3" y2="6.5"/>
<line class="st1" x1="5.4" y1="6.3" x2="10.6" y2="6.3"/>
<line class="st1" x1="5.4" y1="8.3" x2="10.6" y2="8.3"/>
<line class="st1" x1="5.4" y1="10.2" x2="10.6" y2="10.2"/>
<g class="st2">
	<path class="st3" d="M13.9,12.4H2.1c-0.1,0-0.2-0.1-0.2-0.2V4.6c0-0.1,0.1-0.2,0.2-0.2h11.8c0.1,0,0.2,0.1,0.2,0.2v7.6
		C14.1,12.3,14,12.4,13.9,12.4z"/>
	<path class="st4" d="M6.3,4.3H2.1C2,4.3,1.9,4.4,1.9,4.6v7.6c0,0.1,0.1,0.2,0.2,0.2h4.2L6.3,4.3L6.3,4.3z"/>
	<circle class="st5" cx="6.3" cy="8.3" r="1.9"/>
	<path class="st3" d="M7,7.7v0.8c0,0.3-0.3,0.6-0.6,0.6C6,9.2,5.7,8.9,5.7,8.6V7.7H7 M7.2,7.3H5.5c-0.1,0-0.2,0.1-0.2,0.2v1.1
		c0,0.6,0.5,1.1,1.1,1.1s1.1-0.5,1.1-1.1V7.5C7.4,7.4,7.3,7.3,7.2,7.3L7.2,7.3z"/>
	<path class="st6" d="M7,7.7v0.8c0,0.3-0.3,0.6-0.6,0.6C6,9.2,5.7,8.9,5.7,8.6V7.7H7"/>
	<g class="st7">
		<circle class="st8" cx="5.5" cy="7.5" r="0.1"/>
		<circle class="st8" cx="7.2" cy="7.5" r="0.1"/>
		<circle class="st8" cx="5.5" cy="8.3" r="0.1"/>
		<circle class="st8" cx="7.2" cy="8.3" r="0.1"/>
		<circle class="st8" cx="6.3" cy="7.5" r="0.1"/>
		<circle class="st8" cx="7" cy="9.1" r="0.1"/>
		<circle class="st8" cx="5.7" cy="9.1" r="0.1"/>
	</g>
	<g class="st7">
		<path class="st9" d="M6.5,8.3v0.2c0,0.1-0.1,0.1-0.1,0.1s-0.2,0-0.2-0.1V8.3H6.5"/>
		<path class="st9" d="M6.5,7.9L6.5,7.9c0,0.2-0.1,0.2-0.1,0.2S6.2,8.1,6.2,8V7.9H6.5"/>
		<path class="st9" d="M6.5,8.7v0.2C6.5,9,6.4,9,6.3,9S6.2,9,6.2,8.9V8.7H6.5"/>
		<path class="st9" d="M6.8,8.3v0.2c0,0.1-0.1,0.1-0.1,0.1c-0.1,0-0.1-0.1-0.1-0.1V8.3H6.8"/>
		<path class="st9" d="M6.1,8.3v0.2C6.1,8.6,6,8.6,6,8.6s-0.2,0-0.2-0.1V8.3H6.1"/>
	</g>
</g>
<g class="st2">
	<path class="st10" d="M13.9,12.4H2.1c-0.1,0-0.2-0.1-0.2-0.2V4.5c0-0.1,0.1-0.2,0.2-0.2h11.8c0.1,0,0.2,0.1,0.2,0.2v7.6
		C14.1,12.3,14,12.4,13.9,12.4z"/>
	<path class="st6" d="M14.1,4.5c0-0.1-0.1-0.2-0.2-0.2H13L9.1,6.9V4.3H6.9v2.6L3,4.3H2.1C2,4.3,1.9,4.4,1.9,4.5V5l3.4,2.2H1.9v2.1
		h3.4l-3.4,2.2V12c0,0.1,0.1,0.2,0.2,0.2H3l3.9-2.6v2.6H9V9.8l3.9,2.6h0.9c0.1,0,0.2-0.1,0.2-0.2v-0.5l-3.4-2.2H14V7.3h-3.4L14,5.1
		V4.5H14.1z"/>
	<g class="st7">
		<polygon class="st11" points="14.1,7.7 8.6,7.7 8.6,4.3 7.4,4.3 7.4,7.7 1.9,7.7 1.9,9 7.4,9 7.4,12.4 8.6,12.4 8.6,9 14.1,9 		
			"/>
		<path class="st11" d="M6.2,9.4l-4.3,2.8c0,0.1,0.1,0.2,0.2,0.2h0.3l4.6-3H6.2L6.2,9.4z"/>
		<path class="st11" d="M10.2,9.4H9.4l4.5,3c0.1,0,0.2-0.1,0.2-0.2V12L10.2,9.4z"/>
		<path class="st11" d="M1.9,4.8l3.9,2.5h0.8L2,4.4c-0.1,0-0.1,0.1-0.1,0.2V4.8z"/>
		<path class="st11" d="M9.8,7.3l4.3-2.8c0-0.1-0.1-0.2-0.2-0.2h-0.3L9,7.3H9.8z"/>
	</g>
</g>
<rect x="26.8" y="11.7" class="st12" width="150" height="150"/>
</svg>
